<?xml version="1.0" encoding="utf-8"?>
<!-- Generator: Adobe Illustrator 16.0.0, SVG Export Plug-In . SVG Version: 6.00 Build 0)  -->
<!DOCTYPE svg PUBLIC "-//W3C//DTD SVG 1.1//EN" "http://www.w3.org/Graphics/SVG/1.1/DTD/svg11.dtd">
<svg version="1.1" id="Layer_1" xmlns="http://www.w3.org/2000/svg" xmlns:xlink="http://www.w3.org/1999/xlink" x="0px" y="0px"
	 width="256px" height="256px" viewBox="0 0 256 256" enable-background="new 0 0 256 256" xml:space="preserve">
<g>
	<polygon fill="#FF6E69" points="108.097,90.446 79.398,132.982 153.46,182.938 182.154,140.398 	"/>
	<polygon fill="#95CEB4" points="0.875,75.208 0.875,238.365 255.125,238.365 	"/>
	<g>
		<path fill="#48707C" d="M120.42,50.611V18.375h21.585v6.094h-14.328v6.746h12.745v6.09h-12.745v13.307H120.42z"/>
		<path fill="#48707C" d="M150.329,28.749h21.86v5.811h-21.86V28.749z M150.329,38.933h21.86v5.814h-21.86V38.933z"/>
		<path fill="#48707C" d="M191.401,18.375c0.56,1.024,1.203,2.288,1.935,3.793c0.731,1.503,1.494,3.128,2.284,4.881
			c0.793,1.753,1.58,3.542,2.355,5.374c0.775,1.831,1.508,3.551,2.193,5.161c0.687-1.61,1.414-3.33,2.189-5.161
			c0.782-1.832,1.565-3.621,2.357-5.374c0.795-1.752,1.555-3.377,2.286-4.881c0.73-1.505,1.377-2.769,1.937-3.793h6.605
			c0.307,2.14,0.594,4.537,0.86,7.186c0.261,2.652,0.495,5.411,0.696,8.279c0.201,2.869,0.386,5.745,0.56,8.63
			c0.173,2.884,0.319,5.597,0.438,8.142h-7.068c-0.091-3.135-0.218-6.545-0.373-10.234c-0.153-3.69-0.386-7.412-0.694-11.164
			c-0.563,1.301-1.183,2.744-1.869,4.326c-0.684,1.58-1.361,3.164-2.028,4.743c-0.668,1.583-1.318,3.095-1.938,4.539
			c-0.619,1.441-1.149,2.672-1.585,3.694h-5.067c-0.44-1.022-0.967-2.253-1.592-3.694c-0.619-1.444-1.268-2.957-1.934-4.539
			c-0.672-1.58-1.347-3.163-2.03-4.743c-0.685-1.582-1.304-3.025-1.866-4.326c-0.309,3.752-0.544,7.474-0.699,11.164
			c-0.156,3.689-0.276,7.099-0.372,10.234h-7.07c0.124-2.545,0.272-5.257,0.443-8.142c0.169-2.885,0.356-5.761,0.557-8.63
			c0.204-2.869,0.437-5.627,0.699-8.279c0.263-2.649,0.55-5.046,0.861-7.186H191.401z"/>
		<path fill="#48707C" d="M244.938,23.957c-3.381,0-5.82,0.938-7.323,2.813c-1.504,1.879-2.256,4.445-2.256,7.701
			c0,1.58,0.184,3.014,0.56,4.301c0.371,1.286,0.926,2.397,1.673,3.326c0.741,0.929,1.673,1.651,2.789,2.165
			c1.117,0.511,2.42,0.765,3.906,0.765c0.807,0,1.497-0.014,2.071-0.046c0.575-0.03,1.081-0.091,1.516-0.186v-11.21h7.252V49.54
			c-0.866,0.344-2.264,0.708-4.184,1.092c-1.924,0.388-4.296,0.582-7.119,0.582c-2.421,0-4.61-0.369-6.579-1.114
			c-1.972-0.745-3.653-1.833-5.05-3.257c-1.393-1.426-2.472-3.177-3.232-5.256c-0.757-2.078-1.14-4.45-1.14-7.115
			c0-2.697,0.42-5.088,1.256-7.166c0.837-2.076,1.985-3.836,3.441-5.281c1.458-1.44,3.172-2.532,5.141-3.278
			c1.969-0.743,4.073-1.112,6.303-1.112c1.522,0,2.892,0.1,4.119,0.3c1.222,0.201,2.277,0.434,3.158,0.697
			c0.889,0.265,1.614,0.536,2.189,0.813c0.572,0.28,0.983,0.496,1.235,0.651l-2.095,5.814c-0.993-0.525-2.134-0.983-3.422-1.373
			C247.859,24.149,246.46,23.957,244.938,23.957z"/>
	</g>
	<path fill="#48707C" d="M139.528,186.627c-1.29-0.748-2.946-0.302-3.692,0.988l-3.781,6.553v-59.504h-5.406v59.497l-3.779-6.546
		c-0.745-1.292-2.399-1.737-3.689-0.988c-1.293,0.747-1.737,2.398-0.993,3.692l8.826,15.282c0.483,0.837,1.375,1.352,2.34,1.352
		s1.858-0.515,2.342-1.352l8.821-15.282C141.265,189.025,140.821,187.374,139.528,186.627z"/>
	<path fill="#48707C" d="M170.344,75.118c-0.796-0.544-1.823-0.628-2.693-0.211l-15.936,7.585c-1.349,0.639-1.921,2.253-1.28,3.599
		c0.642,1.346,2.249,1.917,3.604,1.278l6.832-3.252l-33.746,49.014l4.453,3.066l33.739-49.015l-0.598,7.541
		c-0.119,1.486,0.992,2.79,2.48,2.909c0.07,0.005,0.145,0.008,0.216,0.008c1.396,0,2.578-1.072,2.691-2.489l1.399-17.592
		C171.582,76.595,171.139,75.667,170.344,75.118z"/>
	<circle fill="#48707C" cx="129.351" cy="134.664" r="6.756"/>
	<path opacity="0.15" d="M158.078,176.089l24.076-35.69l-36.515-24.631l19.677-28.584l-0.598,7.541
		c-0.119,1.486,0.992,2.79,2.48,2.909c0.07,0.005,0.145,0.008,0.216,0.008c1.396,0,2.578-1.072,2.691-2.489l1.399-17.592
		c0.065-0.817-0.262-1.592-0.839-2.149L56.006,238.365h199.119L158.078,176.089z"/>
</g>
</svg>
